<?xml version="1.0" encoding="UTF-8"?> <svg xmlns="http://www.w3.org/2000/svg" xmlns:xlink="http://www.w3.org/1999/xlink" width="6251px" height="3439px" style="shape-rendering:geometricPrecision; text-rendering:geometricPrecision; image-rendering:optimizeQuality; fill-rule:evenodd; clip-rule:evenodd"> <g> <path style="opacity:0.999" fill="#000000" d="M 3155.5,-0.5 C 3165.17,-0.5 3174.83,-0.5 3184.5,-0.5C 3279.51,-0.330718 3373.17,11.5026 3465.5,35C 3542.48,56.163 3615.15,87.163 3683.5,128C 3784.58,193.087 3858.08,281.253 3904,392.5C 3935.96,472.33 3956.96,554.996 3967,640.5C 3979.23,740.596 3981.9,840.93 3975,941.5C 3966.89,1048.28 3939.89,1149.94 3894,1246.5C 3818.66,1398.17 3704.16,1509.67 3550.5,1581C 3397.59,1652.93 3236.93,1680.6 3068.5,1664C 2939.09,1656.06 2815.42,1625.39 2697.5,1572C 2563.04,1507.88 2467.21,1407.04 2410,1269.5C 2377.23,1187.43 2355.9,1102.43 2346,1014.5C 2334.5,919.406 2331.83,824.073 2338,728.5C 2345.02,620.756 2370.69,517.756 2415,419.5C 2512.3,219.912 2668.8,92.4117 2884.5,37C 2973.5,13.7844 3063.84,1.28443 3155.5,-0.5 Z M 3127.5,553.5 C 3204.93,548.77 3258.1,582.103 3287,653.5C 3297.83,684.993 3304.83,717.326 3308,750.5C 3314.27,815.205 3313.93,879.871 3307,944.5C 3303.67,980.821 3293.67,1015.15 3277,1047.5C 3246.3,1096.43 3202.13,1116.59 3144.5,1108C 3098.85,1100.66 3064.35,1077.16 3041,1037.5C 3027.69,1012.25 3018.36,985.58 3013,957.5C 2998.09,873.653 2997.09,789.653 3010,705.5C 3015.23,671.461 3026.23,639.461 3043,609.5C 3062.34,577.421 3090.5,558.754 3127.5,553.5 Z"></path> </g> <g> <path style="opacity:0.998" fill="#000000" d="M -0.5,38.5 C 335.5,38.5 671.5,38.5 1007.5,38.5C 1039.53,387.124 1071.19,735.791 1102.5,1084.5C 1111.5,1084.5 1120.5,1084.5 1129.5,1084.5C 1160.93,735.802 1192.59,387.135 1224.5,38.5C 1560.5,38.5 1896.5,38.5 2232.5,38.5C 2232.5,567.167 2232.5,1095.83 2232.5,1624.5C 2056.17,1624.5 1879.83,1624.5 1703.5,1624.5C 1703.5,1280.17 1703.5,935.833 1703.5,591.5C 1694.83,591.5 1686.17,591.5 1677.5,591.5C 1628.17,935.831 1578.83,1280.16 1529.5,1624.5C 1253.83,1624.5 978.167,1624.5 702.5,1624.5C 653.167,1280.17 603.833,935.833 554.5,591.5C 545.833,591.5 537.167,591.5 528.5,591.5C 528.5,935.833 528.5,1280.17 528.5,1624.5C 352.167,1624.5 175.833,1624.5 -0.5,1624.5C -0.5,1095.83 -0.5,567.167 -0.5,38.5 Z"></path> </g> <g> <path style="opacity:0.998" fill="#000000" d="M 5454.5,1268.5 C 5717.83,1268.5 5981.17,1268.5 6244.5,1268.5C 6216.31,1734.49 6188.15,2200.49 6160,2666.5C 6159.75,2667.62 6159.25,2668.62 6158.5,2669.5C 6137.77,2658.47 6116.11,2649.64 6093.5,2643C 6042.16,2628.28 5989.83,2619.28 5936.5,2616C 5860.68,2611.34 5785.02,2613.01 5709.5,2621C 5661.43,2626.68 5614.77,2638.02 5569.5,2655C 5559.47,2659.43 5549.63,2664.27 5540,2669.5C 5511.04,2202.55 5482.54,1735.55 5454.5,1268.5 Z"></path> </g> <g> <path style="opacity:0.998" fill="#000000" d="M 4376.5,1757.5 C 4496.07,1753.73 4614.73,1762.23 4732.5,1783C 4807.48,1796.49 4879.81,1818.49 4949.5,1849C 5025.85,1883.37 5092.01,1931.54 5148,1993.5C 5196.75,2052.02 5228.09,2119.02 5242,2194.5C 5245.96,2217.41 5249.13,2240.41 5251.5,2263.5C 5041.44,2314.68 4831.44,2366.18 4621.5,2418C 4683.18,2423.55 4744.84,2429.21 4806.5,2435C 4884.06,2442.18 4959.73,2458.18 5033.5,2483C 5089.62,2502.54 5139.95,2531.54 5184.5,2570C 5239.8,2622.74 5274.63,2686.91 5289,2762.5C 5303,2838.83 5303,2915.17 5289,2991.5C 5265.07,3107.26 5205.57,3199.76 5110.5,3269C 5057.06,3307.05 4999.06,3336.72 4936.5,3358C 4860.61,3383.39 4782.94,3401.05 4703.5,3411C 4537.94,3431.47 4372.27,3432.47 4206.5,3414C 4098.34,3401.71 3994.68,3373.38 3895.5,3329C 3839.56,3303.22 3788.56,3270.22 3742.5,3230C 3684.79,3177.12 3644.96,3112.95 3623,3037.5C 3609.87,2986.05 3607.2,2934.05 3615,2881.5C 3823.08,2848.74 4031.25,2816.24 4239.5,2784C 4177.16,2780.76 4114.83,2777.43 4052.5,2774C 3996.4,2768.65 3941.07,2758.98 3886.5,2745C 3830.87,2731.48 3780.2,2707.81 3734.5,2674C 3691.16,2638.64 3660.32,2594.48 3642,2541.5C 3629.19,2502.45 3620.86,2462.45 3617,2421.5C 3586.55,2120.84 3713.05,1920.34 3996.5,1820C 4094.35,1787.96 4194.68,1768.63 4297.5,1762C 4323.98,1760.26 4350.31,1758.76 4376.5,1757.5 Z M 4306.5,2282.5 C 4337.5,2282.33 4368.5,2282.5 4399.5,2283C 4429.48,2284.12 4459.15,2287.79 4488.5,2294C 4520.06,2300.28 4548.39,2313.28 4573.5,2333C 4597.89,2355.78 4612.56,2383.78 4617.5,2417C 4553.5,2416.82 4489.5,2416.16 4425.5,2415C 4364.36,2414.15 4304.03,2406.82 4244.5,2393C 4228.92,2388.82 4214.59,2382.15 4201.5,2373C 4184.54,2357.99 4180.04,2339.83 4188,2318.5C 4192.94,2308.26 4200.78,2301.1 4211.5,2297C 4228.01,2291.08 4245.01,2287.42 4262.5,2286C 4277.31,2284.68 4291.98,2283.51 4306.5,2282.5 Z M 4248.5,2783.5 C 4328.22,2786.06 4407.89,2789.9 4487.5,2795C 4533.56,2797.6 4579.23,2803.27 4624.5,2812C 4643.65,2815.49 4661.32,2822.49 4677.5,2833C 4699.46,2852.13 4703.96,2874.63 4691,2900.5C 4685.13,2907.19 4677.96,2912.02 4669.5,2915C 4646.38,2922.24 4622.71,2926.58 4598.5,2928C 4541.21,2931.32 4483.88,2932.32 4426.5,2931C 4389.78,2930.36 4353.45,2926.36 4317.5,2919C 4302.49,2915.44 4288.16,2910.11 4274.5,2903C 4250.13,2887.77 4238.13,2865.61 4238.5,2836.5C 4240.29,2818.53 4243.63,2800.86 4248.5,2783.5 Z"></path> </g> <g> <path style="opacity:0.999" fill="#000000" d="M -0.5,3384.5 C -0.5,3382.83 -0.5,3381.17 -0.5,3379.5C 108.605,2853.31 217.605,2326.98 326.5,1800.5C 714.166,1799.5 1101.83,1799.17 1489.5,1799.5C 1598.66,2327.8 1707.66,2856.14 1816.5,3384.5C 1590.83,3384.5 1365.17,3384.5 1139.5,3384.5C 1129.17,3329.83 1118.83,3275.17 1108.5,3220.5C 967.833,3220.5 827.167,3220.5 686.5,3220.5C 675.91,3275.12 665.576,3329.79 655.5,3384.5C 436.833,3384.5 218.167,3384.5 -0.5,3384.5 Z M 882.5,2157.5 C 892.595,2156.87 902.428,2157.54 912,2159.5C 947.848,2357.57 984.015,2555.57 1020.5,2753.5C 938.503,2754.5 856.503,2754.83 774.5,2754.5C 810.758,2555.54 846.758,2356.54 882.5,2157.5 Z"></path> </g> <g> <path style="opacity:0.999" fill="#000000" d="M 1926.5,1799.5 C 2159.17,1799.33 2391.83,1799.5 2624.5,1800C 2732.97,1801.46 2840.64,1811.46 2947.5,1830C 3032.96,1844.93 3115.3,1869.93 3194.5,1905C 3282.35,1944.86 3356.85,2002.02 3418,2076.5C 3467.11,2141.38 3502.44,2213.38 3524,2292.5C 3550.75,2393.73 3563.58,2496.73 3562.5,2601.5C 3563.54,2690.38 3551.37,2777.38 3526,2862.5C 3495.01,2958.87 3445.34,3043.87 3377,3117.5C 3309.41,3189.43 3230.91,3246.26 3141.5,3288C 3007.94,3347.72 2867.94,3379.72 2721.5,3384C 2456.5,3384.5 2191.5,3384.67 1926.5,3384.5C 1926.5,2856.17 1926.5,2327.83 1926.5,1799.5 Z M 2560.5,2349.5 C 2593.17,2349.33 2625.84,2349.5 2658.5,2350C 2699.25,2350.57 2738.59,2358.24 2776.5,2373C 2826.05,2393.87 2859.88,2429.7 2878,2480.5C 2890.87,2520.82 2896.71,2562.15 2895.5,2604.5C 2896.64,2643.7 2891.47,2682.04 2880,2719.5C 2862.53,2768.97 2829.03,2802.47 2779.5,2820C 2757.21,2828.13 2734.21,2832.79 2710.5,2834C 2660.5,2834.5 2610.5,2834.67 2560.5,2834.5C 2560.5,2672.83 2560.5,2511.17 2560.5,2349.5 Z"></path> </g> <g> <path style="opacity:0.998" fill="#000000" d="M 6250.5,3089.5 C 6250.5,3094.5 6250.5,3099.5 6250.5,3104.5C 6250.5,3155.96 6243.67,3206.62 6230,3256.5C 6208.27,3329.9 6161.44,3379.73 6089.5,3406C 6054.11,3418.41 6017.78,3426.74 5980.5,3431C 5947.44,3434.81 5914.44,3437.31 5881.5,3438.5C 5858.17,3438.5 5834.83,3438.5 5811.5,3438.5C 5753.87,3437.45 5696.87,3430.28 5640.5,3417C 5596.86,3406.68 5558.53,3386.68 5525.5,3357C 5490.88,3321.27 5468.71,3278.77 5459,3229.5C 5447.99,3174.02 5443.99,3118.02 5447,3061.5C 5448.19,3021.84 5453.86,2982.84 5464,2944.5C 5488.54,2856.96 5544.7,2801.13 5632.5,2777C 5678.69,2764.58 5725.69,2757.25 5773.5,2755C 5846.38,2750.72 5919.05,2753.06 5991.5,2762C 6037.39,2767.72 6081.06,2780.72 6122.5,2801C 6171,2827.84 6204.84,2867.34 6224,2919.5C 6236.14,2954.53 6243.81,2990.53 6247,3027.5C 6248.62,3048.3 6249.78,3068.97 6250.5,3089.5 Z"></path> </g> </svg> 